<svg width="35" height="35" viewBox="0 0 35 35" fill="none" xmlns="http://www.w3.org/2000/svg">
<path d="M30.5635 5.89258C27.3643 2.2832 22.709 0 17.5 0C7.83398 0 0 7.83398 0 17.5H4.375C4.375 10.2471 10.2471 4.375 17.5 4.375C21.499 4.375 25.0469 6.18652 27.4463 9.00977L23.3311 13.125H35V1.45605L30.5635 5.89258ZM17.5 30.625C13.501 30.625 9.95312 28.8135 7.55371 25.9902L11.6689 21.875H0V33.5439L4.43652 29.1074C7.63574 32.7168 12.2979 35 17.5 35C27.166 35 35 27.166 35 17.5H30.625C30.625 24.7529 24.7529 30.625 17.5 30.625Z" fill="#2D9CDB"/>
</svg>
